<?xml version="1.0" encoding="UTF-8"?>
<svg width="33.243mm" height="32.134mm" enable-background="new" version="1.1" viewBox="0 0 33.242514 32.13388" xmlns="http://www.w3.org/2000/svg" xmlns:cc="http://creativecommons.org/ns#" xmlns:dc="http://purl.org/dc/elements/1.1/" xmlns:osb="http://www.openswatchbook.org/uri/2009/osb" xmlns:rdf="http://www.w3.org/1999/02/22-rdf-syntax-ns#" xmlns:xlink="http://www.w3.org/1999/xlink">
<defs>
<filter id="a" color-interpolation-filters="sRGB">
<feBlend in2="BackgroundImage" mode="saturation"/>
</filter>
</defs>
<metadata>
<rdf:RDF>
<cc:Work rdf:about="">
<dc:format>image/svg+xml</dc:format>
<dc:type rdf:resource="http://purl.org/dc/dcmitype/StillImage"/>
<dc:title/>
</cc:Work>
</rdf:RDF>
</metadata>
<g transform="translate(-29.684 -214.12)" filter="url(#a)">
<flowRoot transform="scale(.26458)" fill="#000000" font-family="Raleway" font-size="40px" letter-spacing="0px" word-spacing="0px" style="line-height:1.5" xml:space="preserve"><flowRegion><rect x="290" y="416.81" width="150" height="72.857"/></flowRegion><flowPara/></flowRoot>
<flowRoot transform="scale(.26458)" fill="#000000" font-family="Raleway" font-size="40px" letter-spacing="0px" stroke-width=".37795" word-spacing="0px" style="line-height:1.5" xml:space="preserve"><flowRegion stroke-width=".37795"><rect x="170" y="252.52" width="420" height="100" stroke-width=".37795"/></flowRegion><flowPara/></flowRoot>
<path d="m42.886 229.11c18.048 15.181-15.346 8.5901 9.7089-1.661m-13.008-2.432c4.3611 1.8949 10.072 0.34 14.04 0m4.2433 4.8987a11.166 10.944 0 0 1 -11.166 10.944 11.166 10.944 0 0 1 -11.166 -10.944 11.166 10.944 0 0 1 11.166 -10.944 11.166 10.944 0 0 1 11.166 10.944z" fill="none" stroke="#07cab4" stroke-linecap="round" stroke-linejoin="round" stroke-width="1.1817" style="paint-order:fill markers stroke"/>
</g>
</svg>