<?xml version="1.0" encoding="UTF-8"?>
<svg width="46pt" height="41.36pt" enable-background="new" version="1.1" viewBox="0 0 16.227772 14.590888" xmlns="http://www.w3.org/2000/svg" xmlns:cc="http://creativecommons.org/ns#" xmlns:dc="http://purl.org/dc/elements/1.1/" xmlns:osb="http://www.openswatchbook.org/uri/2009/osb" xmlns:rdf="http://www.w3.org/1999/02/22-rdf-syntax-ns#" xmlns:xlink="http://www.w3.org/1999/xlink">
<defs>
<filter id="a" color-interpolation-filters="sRGB">
<feBlend in2="BackgroundImage" mode="saturation"/>
</filter>
</defs>
<metadata>
<rdf:RDF>
<cc:Work rdf:about="">
<dc:format>image/svg+xml</dc:format>
<dc:type rdf:resource="http://purl.org/dc/dcmitype/StillImage"/>
<dc:title/>
</cc:Work>
</rdf:RDF>
</metadata>
<g transform="translate(-29.684 -231.66)" filter="url(#a)">
<flowRoot transform="scale(.26458)" fill="#000000" font-family="Raleway" font-size="40px" letter-spacing="0px" word-spacing="0px" style="line-height:1.5" xml:space="preserve"><flowRegion><rect x="290" y="416.81" width="150" height="72.857"/></flowRegion><flowPara/></flowRoot>
<flowRoot transform="scale(.26458)" fill="#000000" font-family="Raleway" font-size="40px" letter-spacing="0px" stroke-width=".37795" word-spacing="0px" style="line-height:1.5" xml:space="preserve"><flowRegion stroke-width=".37795"><rect x="170" y="252.52" width="420" height="100" stroke-width=".37795"/></flowRegion><flowPara/></flowRoot>
<path d="m37.794 232.79c-3.6112 0-6.5526 2.8298-6.5526 6.3201 0 3.4903 2.9413 6.3201 6.5526 6.3201 3.6112 0 6.5515-2.8299 6.5515-6.3201-8e-6 -3.4902-2.9403-6.3201-6.5515-6.3201zm0 0.64742c3.2624 0 5.8929 2.5395 5.893 5.6726 0 3.1333-2.6306 5.6727-5.893 5.6727-3.2624 0-5.894-2.5394-5.894-5.6727 7e-6 -3.1332 2.6317-5.6726 5.894-5.6726zm-3.9631 2.6635a0.32932 0.32377 0 0 0 -0.13496 0.62175c2.5872 1.1052 5.8307 0.20708 7.9839 0.0256a0.32932 0.32377 0 1 0 -0.05551 -0.64419c-2.2698 0.19125-5.3924 0.99591-7.6661 0.0247a0.32932 0.32377 0 0 0 -0.12736 -0.028zm7.2394 1.3323a0.32932 0.32377 0 0 0 -0.11758 0.0257c-1.8132 0.72938-3.0875 1.4211-3.9707 2.0814-0.38875-0.38254-0.56514-0.67395-1.1037-1.1193a0.32946 0.32391 0 1 0 -0.4245 0.49544c0.52271 0.4323 0.67572 0.6931 1.0471 1.0584-0.51024 0.46529-0.89159 0.91939-1.0547 1.3526-0.22011 0.58451-0.12235 1.1461 0.1611 1.5613 0.28343 0.41513 0.725 0.69613 1.1919 0.85607 0.46687 0.15984 0.96517 0.20362 1.4052 0.0846 0.44004-0.11911 0.83791-0.45735 0.91322-0.9567 0.07529-0.4993-0.12585-1.0857-0.6324-1.8085-0.20053-0.28612-0.72292-0.71237-1.0319-1.0466 0.81347-0.59658 2.0199-1.264 3.7487-1.9594a0.32932 0.32377 0 0 0 -0.1317 -0.62495zm-4.1013 3.0145c0.28784 0.31198 0.79595 0.73021 0.97418 0.98452 0.45543 0.64984 0.55927 1.1022 0.52246 1.3462-0.03684 0.24417-0.16875 0.35342-0.43647 0.42592-0.26772 0.0725-0.65527 0.052-1.0134-0.0705-0.3581-0.12275-0.68068-0.34158-0.86098-0.60568-0.18029-0.26408-0.2462-0.56203-0.09035-0.97592 0.11569-0.30715 0.44493-0.69079 0.90451-1.1044z" color="#000000" color-rendering="auto" dominant-baseline="auto" enable-background="accumulate" fill="#07cab4" image-rendering="auto" shape-rendering="auto" solid-color="#000000" style="font-feature-settings:normal;font-variant-alternates:normal;font-variant-caps:normal;font-variant-ligatures:normal;font-variant-numeric:normal;font-variant-position:normal;isolation:auto;mix-blend-mode:normal;paint-order:fill markers stroke;shape-padding:0;text-decoration-color:#000000;text-decoration-line:none;text-decoration-style:solid;text-indent:0;text-orientation:mixed;text-transform:none;white-space:normal"/>
</g>
</svg>
